<mxfile host="app.diagrams.net" modified="2024-04-17T06:59:08.657Z" agent="Mozilla/5.0 (Macintosh; Intel Mac OS X 10_15_7) AppleWebKit/537.36 (KHTML, like Gecko) Chrome/123.0.0.0 Safari/537.36" etag="k80GmeCmQDZrCnYokD5T" version="24.2.5" type="github">
  <diagram name="第 1 页" id="kqGPa0BehHwY6oSqWjKg">
    <mxGraphModel dx="1242" dy="734" grid="1" gridSize="10" guides="1" tooltips="1" connect="1" arrows="1" fold="1" page="1" pageScale="1" pageWidth="1200" pageHeight="500" math="0" shadow="0">
      <root>
        <mxCell id="0" />
        <mxCell id="1" parent="0" />
        <mxCell id="Le4LIGTJDVa-HOviwuPf-7" value="" style="edgeStyle=orthogonalEdgeStyle;rounded=0;orthogonalLoop=1;jettySize=auto;html=1;" edge="1" parent="1" source="Le4LIGTJDVa-HOviwuPf-2" target="Le4LIGTJDVa-HOviwuPf-3">
          <mxGeometry relative="1" as="geometry" />
        </mxCell>
        <mxCell id="Le4LIGTJDVa-HOviwuPf-2" value="召回（atomic）" style="rounded=1;whiteSpace=wrap;html=1;" vertex="1" parent="1">
          <mxGeometry x="150" y="80" width="120" height="40" as="geometry" />
        </mxCell>
        <mxCell id="Le4LIGTJDVa-HOviwuPf-8" value="" style="edgeStyle=orthogonalEdgeStyle;rounded=0;orthogonalLoop=1;jettySize=auto;html=1;" edge="1" parent="1" source="Le4LIGTJDVa-HOviwuPf-3" target="Le4LIGTJDVa-HOviwuPf-4">
          <mxGeometry relative="1" as="geometry" />
        </mxCell>
        <mxCell id="Le4LIGTJDVa-HOviwuPf-3" value="精排（atomic）" style="rounded=1;whiteSpace=wrap;html=1;" vertex="1" parent="1">
          <mxGeometry x="330" y="80" width="120" height="40" as="geometry" />
        </mxCell>
        <mxCell id="Le4LIGTJDVa-HOviwuPf-9" value="" style="edgeStyle=orthogonalEdgeStyle;rounded=0;orthogonalLoop=1;jettySize=auto;html=1;" edge="1" parent="1" source="Le4LIGTJDVa-HOviwuPf-4" target="Le4LIGTJDVa-HOviwuPf-6">
          <mxGeometry relative="1" as="geometry" />
        </mxCell>
        <mxCell id="Le4LIGTJDVa-HOviwuPf-4" value="atomic映射长文本" style="rounded=1;whiteSpace=wrap;html=1;" vertex="1" parent="1">
          <mxGeometry x="500" y="80" width="120" height="40" as="geometry" />
        </mxCell>
        <mxCell id="Le4LIGTJDVa-HOviwuPf-6" value="长文本去重" style="rounded=1;whiteSpace=wrap;html=1;" vertex="1" parent="1">
          <mxGeometry x="670" y="80" width="120" height="40" as="geometry" />
        </mxCell>
      </root>
    </mxGraphModel>
  </diagram>
</mxfile>
